<svg width="18" height="18" viewBox="0 0 18 18" fill="none" xmlns="http://www.w3.org/2000/svg">
<path d="M4.2533 5.99805H0.671211V17.5767H4.2533V5.99805Z" fill="#141613"/>
<path d="M2.44543 4.44243C2.86855 4.44576 3.28313 4.32334 3.63657 4.09069C3.99 3.85804 4.26637 3.52565 4.4306 3.13569C4.59484 2.74573 4.63954 2.31576 4.55904 1.90036C4.47853 1.48495 4.27647 1.10283 3.97845 0.802446C3.68044 0.502064 3.29992 0.296971 2.88516 0.213188C2.4704 0.129406 2.0401 0.170698 1.64886 0.331846C1.25761 0.492993 0.923051 0.766724 0.687614 1.11831C0.452178 1.46989 0.326473 1.88349 0.326459 2.30663C0.325353 2.586 0.379283 2.86286 0.485174 3.12139C0.591064 3.37992 0.746844 3.61507 0.94361 3.8134C1.14038 4.01173 1.37429 4.16934 1.63197 4.27727C1.88966 4.38521 2.16606 4.44133 2.44543 4.44243Z" fill="#141613"/>
<path d="M9.98798 11.4974C9.98798 9.86613 10.7364 8.89911 12.1742 8.89911C13.6121 8.89911 14.125 9.83249 14.125 11.4974V17.5768H17.6903V10.2445C17.6903 7.14171 15.9329 5.64497 13.486 5.64497C12.789 5.63472 12.1013 5.80516 11.4898 6.13966C10.8782 6.47417 10.3637 6.96134 9.9964 7.55375V5.99814H6.55727V17.5768H9.9964L9.98798 11.4974Z" fill="#141613"/>
</svg>
