<svg width="22" height="18" viewBox="0 0 22 18" fill="none" xmlns="http://www.w3.org/2000/svg">
<path d="M0.347836 15.7596C2.2547 16.978 4.45949 17.6494 6.72177 17.7007C8.98405 17.752 11.217 17.1812 13.1771 16.0504C15.1372 14.9197 16.7493 13.2725 17.8374 11.2885C18.9256 9.30445 19.4481 7.05971 19.3481 4.79906C20.2119 4.18408 20.9594 3.42026 21.5556 2.54333C20.7637 2.89903 19.9215 3.12992 19.0589 3.22777C19.9728 2.68961 20.6585 1.83592 20.9869 0.827426C20.1338 1.33286 19.2018 1.69132 18.2298 1.88782C17.5773 1.18895 16.7122 0.725225 15.769 0.568747C14.8258 0.41227 13.8573 0.571805 13.0141 1.02254C12.1708 1.47328 11.5002 2.18998 11.1063 3.06121C10.7124 3.93244 10.6174 4.90938 10.8361 5.84017C9.10883 5.75634 7.41864 5.30954 5.87562 4.5289C4.33259 3.74825 2.97135 2.65127 1.88058 1.30942C1.32774 2.26434 1.15958 3.39403 1.41031 4.46857C1.66103 5.54311 2.31181 6.48173 3.23017 7.09336C2.55421 7.06621 1.89397 6.88135 1.30219 6.55353C1.29084 7.56434 1.63207 8.54751 2.2672 9.33395C2.90232 10.1204 3.79165 10.6609 4.7822 10.8626C4.15294 11.0292 3.49477 11.0555 2.85422 10.9397C3.12884 11.802 3.66743 12.5563 4.39392 13.096C5.1204 13.6356 5.99808 13.9334 6.90297 13.9473C5.98873 14.6754 4.93682 15.2111 3.81038 15.5226C2.68395 15.834 1.50621 15.9146 0.347836 15.7596Z" fill="#141613"/>
</svg>
