<svg width="139" height="137" viewBox="0 0 139 137" fill="none" xmlns="http://www.w3.org/2000/svg">
<path d="M138 53C138 60.1781 134.544 68.9902 128.832 78.2104C123.128 87.4165 115.212 96.9708 106.377 105.619C97.5415 114.268 87.7997 121.997 78.4524 127.562C69.0911 133.134 60.1828 136.5 53 136.5C24.0051 136.5 0.5 112.995 0.5 84C0.5 76.8219 3.95602 68.0098 9.66817 58.7896C15.3716 49.5835 23.2876 40.0292 32.1231 31.3807C40.9585 22.7322 50.7003 15.0026 60.0476 9.43839C69.4089 3.86596 78.3172 0.5 85.5 0.5C114.495 0.5 138 24.0051 138 53Z" stroke="#CBCBCB"/>
</svg>
