<svg width="326" height="314" viewBox="0 0 326 314" fill="none" xmlns="http://www.w3.org/2000/svg">
<path d="M325.643 117.246C325.643 133.322 316.695 153.629 302.192 175.082C287.699 196.521 267.694 219.052 245.662 239.567C223.629 260.081 199.579 278.569 176.999 291.926C154.406 305.291 133.334 313.489 117.246 313.489C52.6901 313.489 0.357456 261.156 0.357456 196.601C0.357456 180.524 9.30531 160.218 23.8081 138.765C38.3014 117.325 58.3059 94.794 80.3384 74.2797C102.371 53.7655 126.421 35.2776 149.001 21.9207C171.594 8.55584 192.666 0.357456 208.754 0.357456C273.31 0.357456 325.643 52.6901 325.643 117.246Z" stroke="white" stroke-width="0.714912"/>
</svg>
